<?xml version="1.0" encoding="UTF-8"?>
<svg id="logo" data-name="Layer 1" xmlns="http://www.w3.org/2000/svg" viewBox="0 0 915 222"><defs><style>.cls-1{fill:#1e4488;}</style></defs><path class="cls-1" d="M907,8V214H8V8H907m8-8H0V222H915V0Z"/><path class="cls-1" d="M206.32,171.85q0,1.18-12.43,11.16t-21.33,16.05c-.23-1.8-.51-4.51-.84-8.11a56.64,56.64,0,0,0-10.25-.68h-.34q-.16-2.86-.33-5.91-.68-5.07-3-5.07a14.12,14.12,0,0,0-1.93.34,13.31,13.31,0,0,1-2.1.33c-1.79,0-2.68-1-2.68-2.87V172a3.49,3.49,0,0,0-1.19-3,21.81,21.81,0,0,1-7.1,1.52,11.39,11.39,0,0,1-4.73-1.18q2.21-4.4,2.2-5.41a2.63,2.63,0,0,0-1.69-2.37c-1.8-.33-3.66-.73-5.58-1.18q-3.37-.84-3.38-3.55a15.1,15.1,0,0,1,.76-2.45,13.76,13.76,0,0,0,.76-2.45q0-3.56-5.07-3.55h-3.71c-1.13,0-1.78-.11-2-.34a28.3,28.3,0,0,1-.76-5.24,10.58,10.58,0,0,0-1.52-4.9,8.63,8.63,0,0,0-7.6-4h-.85a11.38,11.38,0,0,1-2.37-.17,7.41,7.41,0,0,0-2.19-1.69,9.81,9.81,0,0,0-1.86-.17H101a5.73,5.73,0,0,1-3.89-1.18v-.85c0-.79.09-2.05.26-3.8s.25-3,.25-3.8c0-.45-.45-1-1.35-1.69H92.24a21.18,21.18,0,0,1-2.87-.17V120a29.94,29.94,0,0,1,.42-3.55,29.27,29.27,0,0,0,.43-4.06q0-3.7-2.54-3.71a6.28,6.28,0,0,0-1.94.59,6.7,6.7,0,0,1-1.95.59H81.43q-.34-2.7-.85-5.58-.84-3.89-2.36-3.89a4.77,4.77,0,0,0-1.44.34,4.48,4.48,0,0,1-1.44.34,3.27,3.27,0,0,1-2.19-1.18c0-1.58-.06-3.3-.17-5.17a9.71,9.71,0,0,0-1.52-4.83A13.19,13.19,0,0,0,64,84.61q-.84-.17-7.94-1.19c-2.6-.22-5.24-.39-7.95-.5q-5.07-.51-7.26-2.21a19.06,19.06,0,0,1-8.45-16.26q0-12.53,10.14-23.55t22.64-11a27.74,27.74,0,0,1,12,2.9q7.44,3.75,9,9.54a21.23,21.23,0,0,0,1.69,7.15,7.7,7.7,0,0,0,6.59,1.71h1.35a2.15,2.15,0,0,1,1.19.33q11,10,35.82,37.86,4.23,4.23,12.85,13.69,20.1,21.47,60.16,64.9a5.75,5.75,0,0,1,.51,3ZM76.53,56.86q0-13.78-10.14-13.79-5.58,0-12.34,5.11-7.61,5.61-7.61,11.91,0,8,11.16,8A28.62,28.62,0,0,0,68.08,65.7Q76.52,62.47,76.53,56.86Zm40.22,88.63v.84a5.22,5.22,0,0,1,.17,1.19,2.45,2.45,0,0,1-.34,1.35q-4.9,6.07-13,14.79t-8.79,8.7q-3.21,0-9.47-6.08a16.17,16.17,0,0,1-3.54-7.1l17.91-17.24q3.88-3.37,13.18-3.38Q116.75,138.56,116.75,145.49Zm101.74-74.7q-10,11-10.14,11.15-7.6,7.78-11.16,7.78-2.19,0-4.73-3.21-2-2.7-2-4.23a5.47,5.47,0,0,1,.93-2,5.46,5.46,0,0,0,.93-2c0-.68-.9-1.67-2.7-3s-3-1.94-3.72-1.94l-31.1,32.61q-5-1.51-8.4-10.77l28.06-30.42q-3.9-8.16-17.61-8.16-1,0-9,.68,10.82-13.52,23.5-13.52,6.91,0,16.22,5.75a121.92,121.92,0,0,1,14,10.81q6.58,5.75,7.09,5.75a5.67,5.67,0,0,0,1.69-.76,5.5,5.5,0,0,1,1.69-.76Q214.1,64.54,218.49,70.79Z"/><path class="cls-1" d="M287.93,111.06c-3.07,1.53-9.22,3.07-17.09,3.07-18.24,0-32-11.52-32-32.74,0-20.25,13.72-34,33.79-34,8.06,0,13.15,1.73,15.35,2.88l-2,6.82A30.37,30.37,0,0,0,273,54.42c-15.16,0-25.24,9.7-25.24,26.69,0,15.84,9.12,26,24.86,26a33.45,33.45,0,0,0,13.63-2.69Z"/><path class="cls-1" d="M326.33,66.71v6.72h-14.5v39.74h-8.35V73.43H289V66.71Z"/><path class="cls-1" d="M333.72,81.87c0-6-.19-10.75-.38-15.16h7.58l.39,8h.19c3.46-5.66,8.93-9,16.51-9,11.23,0,19.68,9.5,19.68,23.62,0,16.7-10.18,25-21.12,25-6.14,0-11.52-2.68-14.3-7.29h-.19v25.24h-8.36Zm8.36,12.39a19.07,19.07,0,0,0,.38,3.45,13,13,0,0,0,12.67,9.89c8.93,0,14.11-7.3,14.11-17.95,0-9.31-4.89-17.28-13.82-17.28a13.48,13.48,0,0,0-12.77,10.46,13.68,13.68,0,0,0-.57,3.46Z"/><path class="cls-1" d="M430.39,89.55c0,17.19-11.9,24.67-23.13,24.67-12.58,0-22.27-9.21-22.27-23.9,0-15.55,10.17-24.67,23-24.67C421.37,65.65,430.39,75.35,430.39,89.55ZM393.53,90c0,10.18,5.86,17.86,14.11,17.86,8.06,0,14.11-7.59,14.11-18C421.75,82,417.82,72,407.83,72S393.53,81.2,393.53,90Z"/><path class="cls-1" d="M448.83,66.71V86.29c0,7.39-.1,12-.49,18.62l.29.1c2.79-5.66,4.42-8.93,7.49-14.3l14.5-24h9.88v46.46h-8.06V93.49c0-7.58.19-11.52.58-19h-.29c-3,6-5,9.7-7.68,14.4-4.42,7.2-9.51,16.13-14.5,24.29h-9.69V66.71ZM454.3,47.8c.28,4.12,2.3,7.29,6.14,7.29,4.13,0,6.05-3.07,6.53-7.29h6c-.39,7.87-5.38,11.9-12.77,11.9-8.45,0-11.71-5.28-12.1-11.9Z"/><path class="cls-1" d="M494.52,49.24a95.86,95.86,0,0,1,16-1.25c8.26,0,14.3,1.92,18.14,5.37,3.56,3.08,5.67,7.78,5.67,13.54s-1.73,10.46-5,13.82c-4.42,4.71-11.62,7.11-19.78,7.11a28.71,28.71,0,0,1-6.72-.58v25.92h-8.35Zm8.35,31.19a28,28,0,0,0,6.91.68c10.08,0,16.23-4.9,16.23-13.83,0-8.54-6-12.67-15.27-12.67a35.29,35.29,0,0,0-7.87.67Z"/><path class="cls-1" d="M547.32,91.47c.19,11.43,7.49,16.13,15.93,16.13a30.64,30.64,0,0,0,12.87-2.4l1.44,6a37.75,37.75,0,0,1-15.46,2.88c-14.3,0-22.84-9.41-22.84-23.42s8.25-25.06,21.79-25.06c15.16,0,19.2,13.34,19.2,21.89a32.79,32.79,0,0,1-.29,3.93Zm24.77-6c.09-5.38-2.21-13.73-11.71-13.73-8.55,0-12.29,7.87-13,13.73Z"/><path class="cls-1" d="M591.19,66.71h10.37L610,90.13c1.15,3.46,3.16,9.12,4.22,12.77h.19c1.06-3.46,3.65-10.85,5.47-15.94l7.49-20.25h10.46l3.27,46.46H633L632,91c-.29-5-.67-10.94-.87-16.6h-.28c-1.25,4.22-2.5,8-5.09,15.07l-8.93,23.42h-6.14l-8.26-22.94C601,85.52,599,78.8,597.82,74.48h-.39c-.19,5.47-.48,11.62-.77,16.71l-1.15,22h-7.77Z"/><path class="cls-1" d="M694.1,89.55c0,17.19-11.9,24.67-23.13,24.67-12.58,0-22.27-9.21-22.27-23.9,0-15.55,10.17-24.67,23-24.67C685.08,65.65,694.1,75.35,694.1,89.55ZM657.24,90c0,10.18,5.85,17.86,14.11,17.86,8.06,0,14.11-7.59,14.11-18C685.46,82,681.53,72,671.54,72S657.24,81.2,657.24,90Z"/><path class="cls-1" d="M712.92,66.71V85.43H735V66.71h8.35v46.46H735v-21H712.92v21h-8.35V66.71Z"/><path class="cls-1" d="M788.28,66.71v6.72h-14.5v39.74h-8.35V73.43h-14.5V66.71Z"/><path class="cls-1" d="M793.65,113.17V108l6.63-6.43c15.93-15.16,23.13-23.23,23.23-32.63,0-6.34-3.07-12.2-12.39-12.2-5.66,0-10.36,2.88-13.24,5.28l-2.69-6a27.35,27.35,0,0,1,17.66-6.33c13.44,0,19.11,9.21,19.11,18.14,0,11.52-8.36,20.83-21.51,33.5l-5,4.61v.19h28v7Z"/><path class="cls-1" d="M869,113.17v-17H840V90.61l27.84-39.84H877V89.55h8.73v6.63H877v17Zm0-23.62V68.72q0-4.89.29-9.79H869c-1.92,3.65-3.46,6.34-5.18,9.22L848.56,89.36v.19Z"/><path class="cls-1" d="M431.06,151.75v3.62h-10.7v21.06h-4.44V151.75Z"/><path class="cls-1" d="M430.71,173.77a3,3,0,0,1,3.06-3.21,3.22,3.22,0,1,1-3.06,3.21Z"/><path class="cls-1" d="M457.69,142.06V157.3h1.37l11.78-15.24h5.36l-13,15.75c5.66.77,7.85,4.24,9.63,8.88a91.1,91.1,0,0,0,3.78,9.74h-4.8a62.08,62.08,0,0,1-3.11-8.11c-1.58-4.54-3.77-7.65-9.58-7.65h-1.43v15.76H453.3V142.06Z"/><path class="cls-1" d="M480.79,159.8c0-3.16-.1-5.71-.2-8.05h4l.2,4.23h.1a9.71,9.71,0,0,1,8.77-4.8c6,0,10.46,5,10.46,12.55,0,8.87-5.41,13.26-11.22,13.26a8.65,8.65,0,0,1-7.6-3.88h-.1v13.41h-4.44Zm4.44,6.58a10.37,10.37,0,0,0,.2,1.84,6.93,6.93,0,0,0,6.73,5.25c4.75,0,7.5-3.88,7.5-9.54,0-4.94-2.6-9.18-7.34-9.18a7.18,7.18,0,0,0-6.79,5.56,7.45,7.45,0,0,0-.3,1.84Z"/><path class="cls-1" d="M523.48,176.43l-.36-3.11H523a9.22,9.22,0,0,1-7.55,3.67c-5,0-7.55-3.52-7.55-7.09,0-6,5.3-9.23,14.84-9.18v-.51c0-2-.56-5.71-5.61-5.71a12.29,12.29,0,0,0-6.42,1.83l-1-3a15.25,15.25,0,0,1,8.1-2.2c7.55,0,9.39,5.15,9.39,10.1v9.23a34.45,34.45,0,0,0,.41,5.92Zm-.67-12.6c-4.89-.1-10.45.77-10.45,5.56a4,4,0,0,0,4.23,4.28,6.15,6.15,0,0,0,6-4.13,4.78,4.78,0,0,0,.25-1.43Z"/><path class="cls-1" d="M552,175.51a16.51,16.51,0,0,1-7.08,1.43c-7.45,0-12.29-5.05-12.29-12.6s5.2-13.1,13.26-13.1a15.07,15.07,0,0,1,6.22,1.27l-1,3.47a10.43,10.43,0,0,0-5.2-1.18c-5.66,0-8.72,4.19-8.72,9.34,0,5.71,3.67,9.23,8.56,9.23a12.74,12.74,0,0,0,5.51-1.23Z"/><path class="cls-1" d="M561.57,151.75v9.94H573.3v-9.94h4.44v24.68H573.3V165.26H561.57v11.17h-4.43V151.75Z"/><path class="cls-1" d="M607.42,163.88c0,9.13-6.32,13.11-12.29,13.11-6.68,0-11.83-4.9-11.83-12.7,0-8.26,5.41-13.11,12.24-13.11C602.63,151.18,607.42,156.33,607.42,163.88Zm-19.58.26c0,5.4,3.11,9.48,7.49,9.48s7.5-4,7.5-9.58c0-4.19-2.09-9.49-7.39-9.49S587.84,159.45,587.84,164.14Z"/><path class="cls-1" d="M631.08,176.43h-4.43V166.07h-3.32a5.83,5.83,0,0,0-4.13,1.38c-1.83,1.48-2.49,4.54-3.46,6.94a17.62,17.62,0,0,1-1,2h-4.8a16.47,16.47,0,0,0,1.53-2.81c1.07-2.4,1.68-5.61,3.88-7.44a5.76,5.76,0,0,1,2.8-1.43v-.15c-3.21-.36-6.52-2.35-6.52-6.12a5.94,5.94,0,0,1,3.26-5.36,17.31,17.31,0,0,1,8.26-1.68,67.48,67.48,0,0,1,8,.51Zm-4.43-21.73a25.5,25.5,0,0,0-3.72-.25c-3.06,0-6.68.86-6.68,4.28,0,3.16,3.92,4.28,6.57,4.28h3.83Z"/><path class="cls-1" d="M638.38,159.8c0-3.16-.1-5.71-.21-8.05h4l.21,4.23h.1a9.71,9.71,0,0,1,8.77-4.8c6,0,10.45,5,10.45,12.55,0,8.87-5.4,13.26-11.21,13.26a8.65,8.65,0,0,1-7.6-3.88h-.1v13.41h-4.44Zm4.44,6.58a10.37,10.37,0,0,0,.2,1.84,6.92,6.92,0,0,0,6.73,5.25c4.74,0,7.5-3.88,7.5-9.54,0-4.94-2.6-9.18-7.35-9.18a7.17,7.17,0,0,0-6.78,5.56,7.45,7.45,0,0,0-.3,1.84Z"/><path class="cls-1" d="M685,175.51a16.53,16.53,0,0,1-7.09,1.43c-7.44,0-12.29-5.05-12.29-12.6s5.2-13.1,13.26-13.1a15,15,0,0,1,6.22,1.27l-1,3.47a10.4,10.4,0,0,0-5.2-1.18c-5.66,0-8.72,4.19-8.72,9.34,0,5.71,3.67,9.23,8.57,9.23a12.78,12.78,0,0,0,5.51-1.23Z"/><path class="cls-1" d="M694.68,151.75v10.7h1.07l9.28-10.7h5.46l-10.76,11.16c4,.41,6.37,3.06,8.31,7.5a53.91,53.91,0,0,0,2.65,6H706a32.65,32.65,0,0,1-2.29-5.05c-1.68-4-4-5.82-8.16-5.82h-.87v10.87h-4.43V151.75Z"/></svg>
