<svg width="18" height="16" viewBox="0 0 18 16" fill="none" xmlns="http://www.w3.org/2000/svg">
<path d="M16.5375 1.58945C15.5931 0.644938 14.3375 0.125183 13.0018 0.125183C11.6659 0.125183 10.4102 0.644938 9.46541 1.58945L8.99999 2.05495L8.53458 1.58945C7.59007 0.644938 6.3341 0.125183 4.99846 0.125183C3.66288 0.125183 2.40681 0.644938 1.4624 1.58945C-0.487466 3.5395 -0.487466 6.71232 1.4624 8.66161L8.44931 15.6486C8.56355 15.7632 8.70577 15.8334 8.85435 15.8605C8.90418 15.8703 8.9543 15.8749 9.0045 15.8749C9.20216 15.8749 9.40014 15.7995 9.55067 15.6486L16.5376 8.66161C18.4875 6.71232 18.4875 3.5395 16.5375 1.58945ZM15.4452 7.56933L9.00004 14.0146L2.55473 7.56933C1.20722 6.22202 1.20722 4.02985 2.55473 2.68182C3.20744 2.02921 4.07557 1.67024 4.99846 1.67024C5.92146 1.67024 6.78935 2.02921 7.44182 2.68182L8.45382 3.69416C8.74391 3.98382 9.25645 3.98382 9.54649 3.69416L10.5581 2.68182C11.2106 2.02921 12.0786 1.67024 13.0019 1.67024C13.9248 1.67024 14.7927 2.02921 15.4452 2.68182C16.7929 4.02985 16.7929 6.22197 15.4452 7.56933Z" fill="#36383C"/>
</svg>
