<svg width="15" height="16" viewBox="0 0 15 16" fill="none" xmlns="http://www.w3.org/2000/svg">
<path d="M0.76 9.73H2.41V11.094H0.76V12.876H2.41V16H4.456V12.876H13.366V11.094H4.456V9.73H8.394C10.572 9.73 12.09 9.29 12.926 8.388C13.762 7.486 14.18 6.364 14.18 5.044C14.18 2.844 12.794 1.062 10.55 0.732C10.022 0.644 9.252 0.599999 8.218 0.599999H2.41V7.97H0.76V9.73ZM4.456 2.426H8.372C9.318 2.426 9.956 2.47 10.286 2.558C11.364 2.844 12.046 3.812 12.046 5.11C12.046 6.892 11.078 7.926 8.416 7.926H4.456V2.426Z" fill="black"/>
</svg>
