<svg width="18" height="18" viewBox="0 0 18 18" fill="none" xmlns="http://www.w3.org/2000/svg">
<path d="M16.4911 8.93672L13.8386 6.83789C13.7859 6.7957 13.7103 6.83438 13.7103 6.90117V8.40234H11.179V3.23438H14.765V5.48438C14.765 5.52305 14.7966 5.55469 14.8353 5.55469H15.89C15.9286 5.55469 15.9603 5.52305 15.9603 5.48438V2.53125C15.9603 2.25879 15.7406 2.03906 15.4681 2.03906H10.4759C10.2034 2.03906 9.98372 2.25879 9.98372 2.53125V15.4688C9.98372 15.7412 10.2034 15.9609 10.4759 15.9609H15.4681C15.7406 15.9609 15.9603 15.7412 15.9603 15.4688V12.5156C15.9603 12.477 15.9286 12.4453 15.89 12.4453H14.8353C14.7966 12.4453 14.765 12.477 14.765 12.5156V14.7656H11.179V9.59766H13.7103V11.0988C13.7103 11.1656 13.7876 11.2043 13.8386 11.1621L16.4911 9.06328C16.5333 9.03164 16.5333 8.96836 16.4911 8.93672V8.93672ZM7.52278 2.03906H2.53059C2.25813 2.03906 2.0384 2.25879 2.0384 2.53125V5.48438C2.0384 5.52305 2.07004 5.55469 2.10872 5.55469H3.1634C3.20208 5.55469 3.23372 5.52305 3.23372 5.48438V3.23438H6.81965V8.40234H4.2884V6.90117C4.2884 6.83438 4.21282 6.7957 4.16008 6.83789L1.50579 8.93672C1.46536 8.96836 1.46536 9.02988 1.50579 9.06152L4.16008 11.1621C4.21106 11.2025 4.2884 11.1656 4.2884 11.0988V9.59766H6.81965V14.7656H3.23372V12.5156C3.23372 12.477 3.20208 12.4453 3.1634 12.4453H2.10872C2.07004 12.4453 2.0384 12.477 2.0384 12.5156V15.4688C2.0384 15.7412 2.25813 15.9609 2.53059 15.9609H7.52278C7.79524 15.9609 8.01497 15.7412 8.01497 15.4688V2.53125C8.01497 2.25879 7.79524 2.03906 7.52278 2.03906Z" fill="#36383C"/>
</svg>
